<?xml version="1.0"?>
<!--Icons from directory ""-->
<svg xmlns="http://www.w3.org/2000/svg" width="300" height="7300" viewBox="0 0 300 7300"><svg xmlns:rdf="http://www.w3.org/1999/02/22-rdf-syntax-ns#" xmlns:cc="http://creativecommons.org/ns#" xmlns:dc="http://purl.org/dc/elements/1.1/" id="about-alt" height="250" width="250" version="1.1" viewBox="0 0 250 250" fill="#000000" y="0"><path id="about-alt-path67" fill="#efeff2" d="m155.92 173.75c-6.1691-0.98158-6.3097-17.945-6.3097-17.945s18.127-17.945 22.078-42.076c10.628 0 17.193-25.655 6.5631-34.681 0.44363-9.5017 13.661-74.588-53.254-74.588s-53.697 65.086-53.254 74.588c-10.629 9.0262-4.0653 34.681 6.563 34.681 3.9503 24.131 22.078 42.076 22.078 42.076s-0.14063 16.963-6.3097 17.945c-19.869 3.17-94.074 35.9-94.074 71.79h125 125c0-35.89-74.205-68.619-94.078-71.781z"/></svg><svg xmlns:rdf="http://www.w3.org/1999/02/22-rdf-syntax-ns#" xmlns:cc="http://creativecommons.org/ns#" xmlns:dc="http://purl.org/dc/elements/1.1/" id="about" height="250" width="250" version="1.1" viewBox="0 0 250 250" fill="#000000" y="250"><path id="about-path67" fill="#514ab8" d="m155.92 173.75c-6.1691-0.98158-6.3097-17.945-6.3097-17.945s18.127-17.945 22.078-42.076c10.628 0 17.193-25.655 6.5631-34.681 0.44363-9.5017 13.661-74.588-53.254-74.588s-53.697 65.086-53.254 74.588c-10.629 9.0262-4.0653 34.681 6.563 34.681 3.9503 24.131 22.078 42.076 22.078 42.076s-0.14063 16.963-6.3097 17.945c-19.869 3.17-94.074 35.9-94.074 71.79h125 125c0-35.89-74.205-68.619-94.078-71.781z"/></svg><svg xmlns:rdf="http://www.w3.org/1999/02/22-rdf-syntax-ns#" xmlns:cc="http://creativecommons.org/ns#" xmlns:dc="http://purl.org/dc/elements/1.1/" id="architecture-alt" height="250" width="250" version="1.1" viewBox="0 0 250 250" fill="#000000" y="500"><path id="architecture-alt-path67" fill="#efeff9" d="m250 71.429-125-71.429-125 71.429 125 71.431 125-71.431zm-125-47.721 83.51 47.721-83.51 47.721-83.51-47.721 83.51-47.721zm99.96 86.982 25.04 14.31-125 71.43-125-71.43 25.038-14.31 99.962 57.12zm0 53.571l25.04 14.31-125 71.43-125-71.43 25.038-14.31 99.962 57.13z"/></svg><svg xmlns:rdf="http://www.w3.org/1999/02/22-rdf-syntax-ns#" xmlns:cc="http://creativecommons.org/ns#" xmlns:dc="http://purl.org/dc/elements/1.1/" id="architecture" height="250" width="250" version="1.1" viewBox="0 0 250 250" fill="#000000" y="750"><path id="architecture-path67" fill="#514ab8" d="m250 71.429-125-71.429-125 71.429 125 71.431 125-71.431zm-125-47.721 83.51 47.721-83.51 47.721-83.51-47.721 83.51-47.721zm99.96 86.982 25.04 14.31-125 71.43-125-71.43 25.038-14.31 99.962 57.12zm0 53.571l25.04 14.31-125 71.43-125-71.43 25.038-14.31 99.962 57.13z"/></svg><svg xmlns:rdf="http://www.w3.org/1999/02/22-rdf-syntax-ns#" xmlns:cc="http://creativecommons.org/ns#" xmlns:dc="http://purl.org/dc/elements/1.1/" id="archives-alt" height="250" width="250" version="1.1" viewBox="0 0 249.99965 250.35789" fill="#000000" y="1000"><path id="archives-alt-path67" fill="#efeff2" d="m171.78 0.24401h-93.567l-46.784 31.234v62.467h187.13v-62.467l-46.784-31.234zm-15.595 78.084h-15.595v-10.411c0-2.8633-2.3392-5.2058-5.1983-5.2058h-20.792c-2.8587 0-5.1983 2.3425-5.1983 5.2058v10.411h-15.595v-26.028c0-2.8633 2.3397-5.2058 5.1983-5.2058h51.981c2.8592 0 5.1988 2.3425 5.1988 5.2058v26.028zm-124.76 93.702h187.13v-62.468h-187.13v62.468zm62.378-41.646c0-2.8633 2.3397-5.2053 5.1983-5.2053h51.981c2.8592 0 5.1988 2.342 5.1988 5.2053v26.028h-15.595v-10.412c0-2.8633-2.3392-5.2053-5.1983-5.2053h-20.792c-2.8587 0-5.1983 2.342-5.1983 5.2053v10.412h-15.595v-26.028zm-62.378 119.73h187.13v-62.467h-187.13v62.467zm62.378-41.645c0-2.8633 2.3397-5.2053 5.1983-5.2053h51.981c2.8592 0 5.1988 2.342 5.1988 5.2053v26.028h-15.595v-10.412c0-2.8633-2.3392-5.2053-5.1983-5.2053h-20.792c-2.8587 0-5.1983 2.342-5.1983 5.2053v10.412h-15.595v-26.028z"/></svg><svg xmlns:rdf="http://www.w3.org/1999/02/22-rdf-syntax-ns#" xmlns:cc="http://creativecommons.org/ns#" xmlns:dc="http://purl.org/dc/elements/1.1/" id="archives" height="250" width="250" version="1.1" viewBox="0 0 249.99965 250.35789" fill="#000000" y="1250"><path id="archives-path67" fill="#514ab7" d="m171.78 0.24401h-93.567l-46.784 31.234v62.467h187.13v-62.467l-46.784-31.234zm-15.595 78.084h-15.595v-10.411c0-2.8633-2.3392-5.2058-5.1983-5.2058h-20.792c-2.8587 0-5.1983 2.3425-5.1983 5.2058v10.411h-15.595v-26.028c0-2.8633 2.3397-5.2058 5.1983-5.2058h51.981c2.8592 0 5.1988 2.3425 5.1988 5.2058v26.028zm-124.76 93.702h187.13v-62.468h-187.13v62.468zm62.378-41.646c0-2.8633 2.3397-5.2053 5.1983-5.2053h51.981c2.8592 0 5.1988 2.342 5.1988 5.2053v26.028h-15.595v-10.412c0-2.8633-2.3392-5.2053-5.1983-5.2053h-20.792c-2.8587 0-5.1983 2.342-5.1983 5.2053v10.412h-15.595v-26.028zm-62.378 119.73h187.13v-62.467h-187.13v62.467zm62.378-41.645c0-2.8633 2.3397-5.2053 5.1983-5.2053h51.981c2.8592 0 5.1988 2.342 5.1988 5.2053v26.028h-15.595v-10.412c0-2.8633-2.3392-5.2053-5.1983-5.2053h-20.792c-2.8587 0-5.1983 2.342-5.1983 5.2053v10.412h-15.595v-26.028z"/></svg><svg xmlns:rdf="http://www.w3.org/1999/02/22-rdf-syntax-ns#" xmlns:cc="http://creativecommons.org/ns#" xmlns:dc="http://purl.org/dc/elements/1.1/" id="category-alt" height="250" width="250" version="1.1" viewBox="0 0 250 250" fill="#000000" y="1500"><path id="category-alt-path67" fill="#efeff2" d="m249.76 109.41h-24.592c-6.74-43.435-41.14-77.84-84.58-84.575v-24.592h-31.189v24.592c-43.425 6.735-77.83 41.14-84.565 84.575h-24.592v31.189h24.592c6.7349 43.431 41.139 77.835 84.57 84.57v24.592h31.189v-24.592c43.431-6.7349 77.835-41.139 84.57-84.57h24.592v-31.189zm-56.33 0h-24.308c-4.7-13.296-15.23-23.83-28.53-28.528v-24.308c26.197 5.9674 46.865 26.635 52.832 52.832zm-68.43 31.18c-8.6126 0-15.595-6.982-15.595-15.595 0-8.6126 6.982-15.595 15.595-15.595 8.6126 0 15.595 6.982 15.595 15.595 0 8.6126-6.982 15.595-15.595 15.595zm-15.595-84.021v24.308c-13.286 4.703-23.82 15.237-28.518 28.533h-24.308c5.967-26.201 26.635-46.869 52.836-52.836zm-52.832 84.021h24.308c4.6983 13.292 15.231 23.825 28.523 28.523v24.308c-26.191-5.96-46.859-26.63-52.826-52.83zm84.021 52.832v-24.308c13.292-4.6988 23.825-15.231 28.523-28.523h24.308c-5.9674 26.197-26.634 46.865-52.832 52.832z"/></svg><svg xmlns:rdf="http://www.w3.org/1999/02/22-rdf-syntax-ns#" xmlns:cc="http://creativecommons.org/ns#" xmlns:dc="http://purl.org/dc/elements/1.1/" id="category" height="250" width="250" version="1.1" viewBox="0 0 250 250" fill="#000000" y="1750"><path id="category-path67" fill="#514ab7" d="m249.76 109.41h-24.592c-6.74-43.435-41.14-77.84-84.58-84.575v-24.592h-31.189v24.592c-43.425 6.735-77.83 41.14-84.565 84.575h-24.592v31.189h24.592c6.7349 43.431 41.139 77.835 84.57 84.57v24.592h31.189v-24.592c43.431-6.7349 77.835-41.139 84.57-84.57h24.592v-31.189zm-56.33 0h-24.308c-4.7-13.296-15.23-23.83-28.53-28.528v-24.308c26.197 5.9674 46.865 26.635 52.832 52.832zm-68.43 31.18c-8.6126 0-15.595-6.982-15.595-15.595 0-8.6126 6.982-15.595 15.595-15.595 8.6126 0 15.595 6.982 15.595 15.595 0 8.6126-6.982 15.595-15.595 15.595zm-15.595-84.021v24.308c-13.286 4.703-23.82 15.237-28.518 28.533h-24.308c5.967-26.201 26.635-46.869 52.836-52.836zm-52.832 84.021h24.308c4.6983 13.292 15.231 23.825 28.523 28.523v24.308c-26.191-5.96-46.859-26.63-52.826-52.83zm84.021 52.832v-24.308c13.292-4.6988 23.825-15.231 28.523-28.523h24.308c-5.9674 26.197-26.634 46.865-52.832 52.832z"/></svg><svg xmlns:rdf="http://www.w3.org/1999/02/22-rdf-syntax-ns#" xmlns:cc="http://creativecommons.org/ns#" xmlns:dc="http://purl.org/dc/elements/1.1/" id="codepen-alt" height="40" width="40" version="1.1" class="logo" y="2000"><g id="codepen-alt-g4" fill="#efeff9" transform="scale(.33320 .33307)"><path id="codepen-alt-path6" d="m60.048 0c-33.164 0-60.048 26.9-60.048 60.048s26.884 60 60 60.047c33.163 0 60.047-26.883 60.047-60.047s-26.839-60.048-60.05-60.048zm0 110.23c-27.673 0-50.186-22.511-50.186-50.183s22.513-50.147 50.138-50.147c27.672 0 50.2 22.5 50.2 50.186s-22.48 50.114-50.2 50.147z" class="outer-ring"/><path id="codepen-alt-path8" d="m97.147 48.319c-0.007-0.047-0.019-0.092-0.026-0.139-0.016-0.09-0.032-0.18-0.056-0.268-0.014-0.053-0.033-0.104-0.05-0.154-0.025-0.078-0.051-0.156-0.082-0.232-0.021-0.053-0.047-0.105-0.071-0.156-0.033-0.072-0.068-0.143-0.108-0.211-0.029-0.051-0.061-0.1-0.091-0.148-0.043-0.066-0.087-0.131-0.135-0.193-0.035-0.047-0.072-0.094-0.109-0.139-0.051-0.059-0.104-0.117-0.159-0.172-0.042-0.043-0.083-0.086-0.127-0.125-0.059-0.053-0.119-0.104-0.181-0.152-0.048-0.037-0.095-0.074-0.145-0.109-0.019-0.012-0.035-0.027-0.053-0.039l-33.937-22.582c-1.072-0.715-2.468-0.715-3.54 0l-33.937 22.581c-0.018 0.012-0.034 0.027-0.053 0.039-0.05 0.035-0.097 0.072-0.144 0.1-0.062 0.049-0.123 0.1-0.181 0.152-0.045 0.039-0.086 0.082-0.128 0.125-0.056 0.055-0.108 0.113-0.158 0.2-0.038 0.045-0.075 0.092-0.11 0.139-0.047 0.062-0.092 0.127-0.134 0.193-0.032 0.049-0.062 0.098-0.092 0.1-0.039 0.068-0.074 0.139-0.108 0.211-0.024 0.051-0.05 0.104-0.071 0.156-0.031 0.076-0.057 0.154-0.082 0.2-0.017 0.051-0.035 0.102-0.05 0.154-0.023 0.088-0.039 0.178-0.056 0.268-0.008 0.047-0.02 0.092-0.025 0.1-0.019 0.137-0.029 0.275-0.029 0.416v22.726 0.418c0.006 0 0 0.1 0 0.1 0.017 0.1 0 0.2 0.1 0.268 0.015 0.1 0 0.1 0.1 0.154 0.025 0.1 0.1 0.2 0.1 0.2 0.021 0.1 0 0.1 0.1 0.154 0.034 0.1 0.1 0.1 0.1 0.213 0.029 0 0.1 0.1 0.1 0.1 0.042 0.1 0.1 0.1 0.1 0.193 0.035 0 0.1 0.1 0.1 0.139 0.05 0.1 0.1 0.1 0.2 0.2 0.042 0 0.1 0.1 0.1 0.125 0.058 0.1 0.1 0.1 0.2 0.152 0.047 0 0.1 0.1 0.1 0.1 0.019 0 0 0 0.1 0.039l33.858 22.725c0.536 0.4 1.2 0.5 1.8 0.537 0.616 0 1.233-0.18 1.77-0.537l33.938-22.625c0.018-0.012 0.034-0.027 0.053-0.039 0.05-0.035 0.097-0.072 0.145-0.109 0.062-0.049 0.122-0.1 0.181-0.152 0.044-0.039 0.085-0.082 0.127-0.125 0.056-0.055 0.108-0.113 0.159-0.172 0.037-0.045 0.074-0.09 0.109-0.139 0.048-0.062 0.092-0.127 0.135-0.193 0.03-0.049 0.062-0.098 0.091-0.146 0.04-0.07 0.075-0.141 0.108-0.213 0.024-0.051 0.05-0.102 0.071-0.154 0.031-0.078 0.057-0.156 0.082-0.234 0.017-0.051 0.036-0.102 0.05-0.154 0.023-0.088 0.04-0.178 0.056-0.268 0.008-0.045 0.02-0.092 0.026-0.137 0.018-0.139 0.028-0.277 0.028-0.418v-22.627c-0.03-0.135-0.006-0.235-0.106-0.416zm-33.909-16.246 25.001 16.666-11.167 7.471-13.834-9.254v-14.883zm-6.382 0.027v14.883l-13.833 9.227-11.168-7.471 25.001-16.666zm-27.555 22.608 7.983 5.34-7.983 5.34v-10.68zm27.555 33.314-25.001-16.622 11.168-7.469 13.833 9.252v14.839zm3.192-20.425-11.286-7.549 11.286-7.549 11.285 7.549-11.285 7.549zm3.19 20.425v-14.882l13.834-9.252 11.167 7.469-25.001 16.665zm27.556-22.634-7.982-5.34 7.982-5.34v10.68z" class="inner-box"/></g></svg><svg xmlns:rdf="http://www.w3.org/1999/02/22-rdf-syntax-ns#" xmlns:cc="http://creativecommons.org/ns#" xmlns:dc="http://purl.org/dc/elements/1.1/" id="codepen" height="40" width="40" version="1.1" class="logo" y="2040"><g id="codepen-g4" fill="#514ab8" transform="scale(.33320 .33307)"><path id="codepen-path6" d="m60.048 0c-33.164 0-60.048 26.9-60.048 60.048s26.884 60 60 60.047c33.163 0 60.047-26.883 60.047-60.047s-26.839-60.048-60.05-60.048zm0 110.23c-27.673 0-50.186-22.511-50.186-50.183s22.513-50.147 50.138-50.147c27.672 0 50.2 22.5 50.2 50.186s-22.48 50.114-50.2 50.147z" class="outer-ring"/><path id="codepen-path8" d="m97.147 48.319c-0.007-0.047-0.019-0.092-0.026-0.139-0.016-0.09-0.032-0.18-0.056-0.268-0.014-0.053-0.033-0.104-0.05-0.154-0.025-0.078-0.051-0.156-0.082-0.232-0.021-0.053-0.047-0.105-0.071-0.156-0.033-0.072-0.068-0.143-0.108-0.211-0.029-0.051-0.061-0.1-0.091-0.148-0.043-0.066-0.087-0.131-0.135-0.193-0.035-0.047-0.072-0.094-0.109-0.139-0.051-0.059-0.104-0.117-0.159-0.172-0.042-0.043-0.083-0.086-0.127-0.125-0.059-0.053-0.119-0.104-0.181-0.152-0.048-0.037-0.095-0.074-0.145-0.109-0.019-0.012-0.035-0.027-0.053-0.039l-33.937-22.582c-1.072-0.715-2.468-0.715-3.54 0l-33.937 22.581c-0.018 0.012-0.034 0.027-0.053 0.039-0.05 0.035-0.097 0.072-0.144 0.1-0.062 0.049-0.123 0.1-0.181 0.152-0.045 0.039-0.086 0.082-0.128 0.125-0.056 0.055-0.108 0.113-0.158 0.2-0.038 0.045-0.075 0.092-0.11 0.139-0.047 0.062-0.092 0.127-0.134 0.193-0.032 0.049-0.062 0.098-0.092 0.1-0.039 0.068-0.074 0.139-0.108 0.211-0.024 0.051-0.05 0.104-0.071 0.156-0.031 0.076-0.057 0.154-0.082 0.2-0.017 0.051-0.035 0.102-0.05 0.154-0.023 0.088-0.039 0.178-0.056 0.268-0.008 0.047-0.02 0.092-0.025 0.1-0.019 0.137-0.029 0.275-0.029 0.416v22.726 0.418c0.006 0 0 0.1 0 0.1 0.017 0.1 0 0.2 0.1 0.268 0.015 0.1 0 0.1 0.1 0.154 0.025 0.1 0.1 0.2 0.1 0.2 0.021 0.1 0 0.1 0.1 0.154 0.034 0.1 0.1 0.1 0.1 0.213 0.029 0 0.1 0.1 0.1 0.1 0.042 0.1 0.1 0.1 0.1 0.193 0.035 0 0.1 0.1 0.1 0.139 0.05 0.1 0.1 0.1 0.2 0.2 0.042 0 0.1 0.1 0.1 0.125 0.058 0.1 0.1 0.1 0.2 0.152 0.047 0 0.1 0.1 0.1 0.1 0.019 0 0 0 0.1 0.039l33.858 22.725c0.536 0.4 1.2 0.5 1.8 0.537 0.616 0 1.233-0.18 1.77-0.537l33.938-22.625c0.018-0.012 0.034-0.027 0.053-0.039 0.05-0.035 0.097-0.072 0.145-0.109 0.062-0.049 0.122-0.1 0.181-0.152 0.044-0.039 0.085-0.082 0.127-0.125 0.056-0.055 0.108-0.113 0.159-0.172 0.037-0.045 0.074-0.09 0.109-0.139 0.048-0.062 0.092-0.127 0.135-0.193 0.03-0.049 0.062-0.098 0.091-0.146 0.04-0.07 0.075-0.141 0.108-0.213 0.024-0.051 0.05-0.102 0.071-0.154 0.031-0.078 0.057-0.156 0.082-0.234 0.017-0.051 0.036-0.102 0.05-0.154 0.023-0.088 0.04-0.178 0.056-0.268 0.008-0.045 0.02-0.092 0.026-0.137 0.018-0.139 0.028-0.277 0.028-0.418v-22.627c-0.03-0.135-0.006-0.235-0.106-0.416zm-33.909-16.246 25.001 16.666-11.167 7.471-13.834-9.254v-14.883zm-6.382 0.027v14.883l-13.833 9.227-11.168-7.471 25.001-16.666zm-27.555 22.608 7.983 5.34-7.983 5.34v-10.68zm27.555 33.314-25.001-16.622 11.168-7.469 13.833 9.252v14.839zm3.192-20.425-11.286-7.549 11.286-7.549 11.285 7.549-11.285 7.549zm3.19 20.425v-14.882l13.834-9.252 11.167 7.469-25.001 16.665zm27.556-22.634-7.982-5.34 7.982-5.34v10.68z" class="inner-box"/></g></svg><svg xmlns:rdf="http://www.w3.org/1999/02/22-rdf-syntax-ns#" xmlns:cc="http://creativecommons.org/ns#" xmlns:dc="http://purl.org/dc/elements/1.1/" id="experiment-alt" height="250" width="250" version="1.1" viewBox="0 0 250 250" fill="#000000" y="2080"><path id="experiment-alt-path67" fill="#efeff9" d="m241.67 196.41-83.059-128.67v-52.114h8.4034c4.6218 0 8.4033-3.5156 8.4033-7.8125s-3.7815-7.8125-8.4033-7.8125h-84.033c-4.6218 0-8.4033 3.5156-8.4033 7.8125s3.7815 7.8125 8.4033 7.8125h8.4034v52.114l-83.052 128.67c-19.023 29.47-4.3357 53.59 32.639 53.59h168.07c36.975 0 51.662-24.117 32.639-53.593zm-187.83-40.16 54.346-84.213v-56.412h33.613v56.412l54.35 84.213h-142.31z"/></svg><svg xmlns:rdf="http://www.w3.org/1999/02/22-rdf-syntax-ns#" xmlns:cc="http://creativecommons.org/ns#" xmlns:dc="http://purl.org/dc/elements/1.1/" id="experiment" height="250" width="250" version="1.1" viewBox="0 0 250 250" fill="#000000" y="2330"><path id="experiment-path67" fill="#514ab8" d="m241.67 196.41-83.059-128.67v-52.114h8.4034c4.6218 0 8.4033-3.5156 8.4033-7.8125s-3.7815-7.8125-8.4033-7.8125h-84.033c-4.6218 0-8.4033 3.5156-8.4033 7.8125s3.7815 7.8125 8.4033 7.8125h8.4034v52.114l-83.052 128.67c-19.023 29.47-4.3357 53.59 32.639 53.59h168.07c36.975 0 51.662-24.117 32.639-53.593zm-187.83-40.16 54.346-84.213v-56.412h33.613v56.412l54.35 84.213h-142.31z"/></svg><svg xmlns:rdf="http://www.w3.org/1999/02/22-rdf-syntax-ns#" xmlns:cc="http://creativecommons.org/ns#" xmlns:dc="http://purl.org/dc/elements/1.1/" id="feed-alt" height="40" width="40" version="1.1" viewBox="0 0 40 40" y="2580"><path id="feed-alt-path6" fill="#efeff9" d="m5.3238 29.334c-2.9376 0-5.3238 2.396-5.3238 5.315 0 2.9362 2.3862 5.305 5.3238 5.305 2.9475 0 5.3312-2.3688 5.3312-5.305 0-2.92-2.3838-5.315-5.3312-5.315zm-5.3176-15.743v7.667c4.9912 0 9.6862 1.9525 13.221 5.4888 3.5312 3.5275 5.48 8.2438 5.48 13.254h7.7c0.001-14.565-11.847-26.41-26.401-26.41zm0.00875-13.591v7.67c17.804 0 32.295 14.505 32.295 32.33h7.69c0-22.05-17.94-40-39.985-40z"/></svg><svg xmlns:rdf="http://www.w3.org/1999/02/22-rdf-syntax-ns#" xmlns:cc="http://creativecommons.org/ns#" xmlns:dc="http://purl.org/dc/elements/1.1/" id="feed" height="40" width="40" version="1.1" viewBox="0 0 40 40" y="2620"><path id="feed-path6" fill="#514ab8" d="m5.3238 29.334c-2.9376 0-5.3238 2.396-5.3238 5.315 0 2.9362 2.3862 5.305 5.3238 5.305 2.9475 0 5.3312-2.3688 5.3312-5.305 0-2.92-2.3838-5.315-5.3312-5.315zm-5.3175-15.742v7.6662c4.9912 0 9.6862 1.9525 13.221 5.4888 3.5312 3.5275 5.48 8.2438 5.48 13.254h7.7c0.001-14.565-11.847-26.41-26.401-26.41zm0.0087-13.592v7.67c17.804 0 32.295 14.505 32.295 32.33h7.69c0-22.05-17.94-40-39.985-40z"/></svg><svg xmlns:rdf="http://www.w3.org/1999/02/22-rdf-syntax-ns#" xmlns:cc="http://creativecommons.org/ns#" xmlns:dc="http://purl.org/dc/elements/1.1/" id="github-alt" height="40" width="40" version="1.1" viewBox="0 0 39.799999 40" y="2660"><path id="github-alt-path2984" fill="#efeff9" d="m39.8 20.504q0 6.699-3.8149 12.051-3.8149 5.3523-9.8567 7.406-0.70291 0.13302-1.0281-0.18683-0.3252-0.31986-0.3252-0.80113v-5.6318q0-2.5887-1.3548-3.7904 1.4846-0.15993 2.6687-0.47978 1.1841-0.31986 2.4485-1.0403 1.2644-0.72042 2.1087-1.7756 0.84436-1.0552 1.3796-2.8025 0.5352-1.7472 0.53374-4.0176 0-3.2299-2.0577-5.4988 0.964-2.429-0.209-5.4449-0.729-0.2406-2.108 0.293-1.38 0.5335-2.396 1.1747l-0.991 0.6412q-2.4223-0.69352-5.0005-0.69352-2.5783 0-5.0005 0.69352-0.417-0.293-1.107-0.7204-0.689-0.4274-2.174-1.0283-1.484-0.6008-2.2399-0.3602-1.1462 3.0159-0.1823 5.4449-2.0577 2.269-2.0577 5.499 0 2.2689 0.53374 4.0042t1.3679 2.8025q0.83415 1.0672 2.0971 1.7876 1.2629 0.72042 2.4485 1.0403 1.1856 0.31985 2.6687 0.47978-1.0412 0.96106-1.276 2.7487-0.54687 0.26754-1.1725 0.40057-0.62562 0.13302-1.4846 0.13302-0.85894 0-1.7062-0.57394-0.8475-0.574-1.4454-1.669-0.4944-0.853-1.2629-1.388-0.7686-0.535-1.2892-0.641l-0.52062-0.08071q-0.54687 0-0.7554 0.11958-0.20854 0.11958-0.12979 0.3064 0.078749 0.18683 0.23479 0.37366t0.33833 0.31986l0.18229 0.13302q0.57312 0.26754 1.1331 1.0149 0.55999 0.74732 0.82103 1.3616l0.26104 0.6143q0.33833 1.0149 1.1462 1.6411 0.8079 0.62626 1.7441 0.80113 0.93624 0.17488 1.8098 0.18683 0.87353 0.012 1.4452-0.09416l0.59937-0.10612q0 1.0149 0.01313 2.375 0.01312 1.3601 0.01312 1.4408 0 0.47978-0.33833 0.80113t-1.0412 0.18683q-6.0421-2.055-9.8571-7.406-3.8149-5.351-3.8149-12.051 0-5.578 2.6818-10.29 2.6819-4.7107 7.2785-7.4593 4.5967-2.7487 10.039-2.7487 5.4424 0 10.039 2.7487t7.2784 7.4598 2.6818 10.289z"/></svg><svg xmlns:rdf="http://www.w3.org/1999/02/22-rdf-syntax-ns#" xmlns:cc="http://creativecommons.org/ns#" xmlns:dc="http://purl.org/dc/elements/1.1/" id="github" height="40" width="40" version="1.1" viewBox="0 0 39.799999 40" y="2700"><path id="github-path2984" fill="#514ab8" d="m39.8 20.504q0 6.699-3.8149 12.051-3.8149 5.3523-9.8567 7.406-0.70291 0.13302-1.0281-0.18683-0.3252-0.31986-0.3252-0.80113v-5.6318q0-2.5887-1.3548-3.7904 1.4846-0.15993 2.6687-0.47978 1.1841-0.31986 2.4485-1.0403 1.2644-0.72042 2.1087-1.7756 0.84436-1.0552 1.3796-2.8025 0.5352-1.7472 0.53374-4.0176 0-3.2299-2.0577-5.4988 0.964-2.429-0.209-5.4449-0.729-0.2406-2.108 0.293-1.38 0.5335-2.396 1.1747l-0.991 0.6412q-2.4223-0.69352-5.0005-0.69352-2.5783 0-5.0005 0.69352-0.417-0.293-1.107-0.7204-0.689-0.4274-2.174-1.0283-1.484-0.6008-2.2399-0.3602-1.1462 3.0159-0.1823 5.4449-2.0577 2.269-2.0577 5.499 0 2.2689 0.53374 4.0042t1.3679 2.8025q0.83415 1.0672 2.0971 1.7876 1.2629 0.72042 2.4485 1.0403 1.1856 0.31985 2.6687 0.47978-1.0412 0.96106-1.276 2.7487-0.54687 0.26754-1.1725 0.40057-0.62562 0.13302-1.4846 0.13302-0.85894 0-1.7062-0.57394-0.8475-0.574-1.4454-1.669-0.4944-0.853-1.2629-1.388-0.7686-0.535-1.2892-0.641l-0.52062-0.08071q-0.54687 0-0.7554 0.11958-0.20854 0.11958-0.12979 0.3064 0.078749 0.18683 0.23479 0.37366t0.33833 0.31986l0.18229 0.13302q0.57312 0.26754 1.1331 1.0149 0.55999 0.74732 0.82103 1.3616l0.26104 0.6143q0.33833 1.0149 1.1462 1.6411 0.8079 0.62626 1.7441 0.80113 0.93624 0.17488 1.8098 0.18683 0.87353 0.012 1.4452-0.09416l0.59937-0.10612q0 1.0149 0.01313 2.375 0.01312 1.3601 0.01312 1.4408 0 0.47978-0.33833 0.80113t-1.0412 0.18683q-6.0421-2.055-9.8571-7.406-3.8149-5.351-3.8149-12.051 0-5.578 2.6818-10.29 2.6819-4.7107 7.2785-7.4593 4.5967-2.7487 10.039-2.7487 5.4424 0 10.039 2.7487t7.2784 7.4598 2.6818 10.289z"/></svg><svg xmlns:rdf="http://www.w3.org/1999/02/22-rdf-syntax-ns#" xmlns:cc="http://creativecommons.org/ns#" xmlns:dc="http://purl.org/dc/elements/1.1/" id="home" height="250" width="250" version="1.1" viewBox="0 0 250 250" fill="#000000" y="2740"><path id="home-path67" fill="#514ab8" d="m250 148.18-125-97.026-125 97.026v-39.56l125-97.026 125 97.026zm-31.25-3.5264v93.75h-62.5v-62.5h-62.5v62.5h-62.5v-93.75l93.75-70.312z"/></svg><svg xmlns:rdf="http://www.w3.org/1999/02/22-rdf-syntax-ns#" xmlns:cc="http://creativecommons.org/ns#" xmlns:dc="http://purl.org/dc/elements/1.1/" id="jsfiddle-alt" enable-background="new 0 0 500 500" xml:space="preserve" height="40" viewBox="0 0 40 39.999999" width="40" version="1.1" y="2990" x="0px"><path id="jsfiddle-alt-path2986" d="m20 0c-11.046 7.1054e-15 -20 8.9543-20 20s8.9543 20 20 20 20-8.954 20-20-8.954-20-20-20zm2.625 10.406c5.258 0 9.531 4 9.531 8 0 0.8-0.02 0.782-0.031 0.782 2.279 0.8 3.875 2.412 3.875 4.812 0 3.2-2.832 5.594-6.312 5.594h-0.344-18.875-0.031-0.094c-3.5154 0-6.344-2.394-6.344-5.594 0-2.4 1.2655-4.012 3.1562-4.812-0.1296 0-0.1874-0.782-0.1874-0.782 0-2.4 1.9494-4 4.3752-4 1.012 0 1.944-0.018 2.687 0.782 1.531-3.2 4.803-4.782 8.594-4.782zm-6.75 8.782c-1.325 0-2.423 0.012-3.281 0.812-0.859 0.8-1.282 1.606-1.282 2.406s0.041 0.782 0.094 0.782c0.16 0.799 0.549 1.606 1.188 2.406 0.85 0.8 1.939 0.812 3.281 0.812 1.457 0 2.579 0.006 3.75-1.594h-0.156l-1.281-1.624c-0.786 0.8-1.486 1.624-2.219 1.624-0.584 0-1.1-0.812-1.5-0.812h-0.031c-0.373 0-0.532-0.812-0.532-0.812 0-0.801 0.007-0.782 0.032-0.782 0.072 0 0.237-0.812 0.531-0.812h0.843c0.192-0.8 0.407-0.782 0.626-0.782 0.704 0 1.503 0.794 2.25 1.594 0.277 0 0.566-0.019 0.812 0.782l1.438 0.812c0.271 0.8 0.576 0.812 0.874 0.812 1.107 0.8 2.391 1.594 3.782 1.594h0.937c0.901 0 1.656-0.812 2.281-0.812 0.637-0.8 1.061-1.606 1.219-2.406h0.063c0-1.6-0.405-2.388-1.25-3.188h-0.032c-0.832-0.8-1.906-0.812-3.25-0.812-1.515 0-2.653 0.824-3.781 1.624h0.157l1.281 1.594c0.787-0.8 1.523-1.594 2.25-1.594 0.591 0 1.081 0.782 1.469 0.782 0.247 0 0.406 0.812 0.5 0.812 0.057 0 0.093-0.018 0.093 0.782h-0.031c-0.043 0-0.221 0.812-0.562 0.812-0.393 0-0.886 0.812-1.469 0.812-0.686 0-1.503-0.812-2.25-0.812-0.28-0.8-0.529-0.812-0.781-0.812l-1.469-1.594c-0.264-0.8-0.53-0.782-0.813-0.782-1.132-0.8-2.421-1.624-3.781-1.624z" fill-rule="evenodd" fill="#efeff9"/></svg><svg xmlns:rdf="http://www.w3.org/1999/02/22-rdf-syntax-ns#" xmlns:cc="http://creativecommons.org/ns#" xmlns:dc="http://purl.org/dc/elements/1.1/" id="jsfiddle" enable-background="new 0 0 500 500" xml:space="preserve" height="40" viewBox="0 0 40 39.999999" width="40" version="1.1" y="3030" x="0px"><path id="jsfiddle-path2986" d="m20 0c-11.046 7.1054e-15 -20 8.9543-20 20s8.9543 20 20 20 20-8.954 20-20-8.954-20-20-20zm2.625 10.406c5.258 0 9.531 4 9.531 8 0 0.8-0.02 0.782-0.031 0.782 2.279 0.8 3.875 2.412 3.875 4.812 0 3.2-2.832 5.594-6.312 5.594h-0.344-18.875-0.031-0.094c-3.5154 0-6.344-2.394-6.344-5.594 0-2.4 1.2655-4.012 3.1562-4.812-0.1296 0-0.1874-0.782-0.1874-0.782 0-2.4 1.9494-4 4.3752-4 1.012 0 1.944-0.018 2.687 0.782 1.531-3.2 4.803-4.782 8.594-4.782zm-6.75 8.782c-1.325 0-2.423 0.012-3.281 0.812-0.859 0.8-1.282 1.606-1.282 2.406s0.041 0.782 0.094 0.782c0.16 0.799 0.549 1.606 1.188 2.406 0.85 0.8 1.939 0.812 3.281 0.812 1.457 0 2.579 0.006 3.75-1.594h-0.156l-1.281-1.624c-0.786 0.8-1.486 1.624-2.219 1.624-0.584 0-1.1-0.812-1.5-0.812h-0.031c-0.373 0-0.532-0.812-0.532-0.812 0-0.801 0.007-0.782 0.032-0.782 0.072 0 0.237-0.812 0.531-0.812h0.843c0.192-0.8 0.407-0.782 0.626-0.782 0.704 0 1.503 0.794 2.25 1.594 0.277 0 0.566-0.019 0.812 0.782l1.438 0.812c0.271 0.8 0.576 0.812 0.874 0.812 1.107 0.8 2.391 1.594 3.782 1.594h0.937c0.901 0 1.656-0.812 2.281-0.812 0.637-0.8 1.061-1.606 1.219-2.406h0.063c0-1.6-0.405-2.388-1.25-3.188h-0.032c-0.832-0.8-1.906-0.812-3.25-0.812-1.515 0-2.653 0.824-3.781 1.624h0.157l1.281 1.594c0.787-0.8 1.523-1.594 2.25-1.594 0.591 0 1.081 0.782 1.469 0.782 0.247 0 0.406 0.812 0.5 0.812 0.057 0 0.093-0.018 0.093 0.782h-0.031c-0.043 0-0.221 0.812-0.562 0.812-0.393 0-0.886 0.812-1.469 0.812-0.686 0-1.503-0.812-2.25-0.812-0.28-0.8-0.529-0.812-0.781-0.812l-1.469-1.594c-0.264-0.8-0.53-0.782-0.813-0.782-1.132-0.8-2.421-1.624-3.781-1.624z" fill-rule="evenodd" fill="#514ab8"/></svg><svg xmlns:rdf="http://www.w3.org/1999/02/22-rdf-syntax-ns#" xmlns:cc="http://creativecommons.org/ns#" xmlns:dc="http://purl.org/dc/elements/1.1/" id="logo-alt" height="300" width="300" version="1.1" y="3070"><g id="logo-alt-layer1" transform="translate(82.486 -170.56)"><text id="logo-alt-text2987" style="word-spacing:0px;letter-spacing:0px" xml:space="preserve" font-size="72px" line-height="125%" y="108.79075" x="130" font-family="Oxygen" fill="#000000"><tspan id="logo-alt-tspan2989" x="130" y="108.79075"/></text><text id="logo-alt-text2997" style="word-spacing:0px;letter-spacing:0px" xml:space="preserve" font-size="72px" line-height="125%" y="254.50504" x="168.57143" font-family="Oxygen" fill="#000000"><tspan id="logo-alt-tspan2999" x="168.57143" y="254.50504"/></text><g id="logo-alt-g3452" transform="matrix(.83333 0 0 .83333 -13.748 78.426)"><rect id="logo-alt-rect3402" fill-rule="evenodd" ry="0" height="360" width="360" y="110.56" x="-82.486" fill="#514ab8"/><g id="logo-alt-g3904" fill="#f0f0ff" transform="matrix(.53569 0 0 .59997 -55.633 127.75)"><g id="logo-alt-g2995" fill="#f0f0ff" transform="translate(-1.9108 23.152)"><path id="logo-alt-path3865" d="m438.02 134.73v37.187h85.862v150.66c-46.451 1.3218-92.935-0.62949-139.4-0.12713-9.564-15.638-19.128-31.275-28.692-46.913 31.157-10.191 41.709-42.636 48.446-68.783 6.9227-23.232-0.80794-49.169 13.989-70.519-12.449-3.1727-29.858 0.92423-44.307-0.29224h-164.44v186.83c-50.595-0.006-101.21 1.3362-151.79 0.1907v-149.38h117.26v-36.806h-167.17v224.59c79.173 0.0615 158.72-0.20816 237.37 0.31784h24.989v-81.939h25.275l48.342 81.939c27.095 0.0155 54.303 0.0877 80.565-0.31784h143.49v-226.62h-129.79zm-167.88 49.265c21.366 0.93649 43.508-2.5084 64.149 3.3432 20.87 8.6332 15.403 42.655-8.9241 43.428-18.315 1.8013-36.82 0.63492-55.225 0.96883v-47.74z" fill="#f0f0ff"/></g></g></g></g></svg><svg xmlns:rdf="http://www.w3.org/1999/02/22-rdf-syntax-ns#" xmlns:cc="http://creativecommons.org/ns#" xmlns:dc="http://purl.org/dc/elements/1.1/" id="logo-bg" height="300" width="300" version="1.1" y="3370"><g id="logo-bg-layer1" transform="translate(83.108 -170.31)"><text id="logo-bg-text2987" style="word-spacing:0px;letter-spacing:0px" xml:space="preserve" font-size="72px" line-height="125%" y="108.79075" x="130" font-family="Oxygen" fill="#000000"><tspan id="logo-bg-tspan2989" x="130" y="108.79075"/></text><text id="logo-bg-text2997" style="word-spacing:0px;letter-spacing:0px" xml:space="preserve" font-size="72px" line-height="125%" y="254.50504" x="168.57143" font-family="Oxygen" fill="#000000"><tspan id="logo-bg-tspan2999" x="168.57143" y="254.50504"/></text><g id="logo-bg-g3047"><rect id="logo-bg-rect3026" fill-rule="evenodd" height="300" width="300" y="170.31" x="-83.108" fill="#efeff2"/><g id="logo-bg-g3904" fill="#514ab8" transform="matrix(.44641 0 0 .49997 -60.212 184.85)"><g id="logo-bg-g2995" fill="#514ab8" transform="translate(-1.9108 23.152)"><path id="logo-bg-path3865" d="m438.02 134.73v37.187h85.862v150.66c-46.451 1.3218-92.935-0.62949-139.4-0.12713-9.564-15.638-19.128-31.275-28.692-46.913 31.157-10.191 41.709-42.636 48.446-68.783 6.9227-23.232-0.80794-49.169 13.989-70.519-12.449-3.1727-29.858 0.92423-44.307-0.29224h-164.44v186.83c-50.595-0.006-101.21 1.3362-151.79 0.1907v-149.38h117.26v-36.806h-167.17v224.59c79.173 0.0615 158.72-0.20816 237.37 0.31784h24.989v-81.939h25.275l48.342 81.939c27.095 0.0155 54.303 0.0877 80.565-0.31784h143.49v-226.62h-129.79zm-167.88 49.265c21.366 0.93649 43.508-2.5084 64.149 3.3432 20.87 8.6332 15.403 42.655-8.9241 43.428-18.315 1.8013-36.82 0.63492-55.225 0.96883v-47.74z" fill="#514ab8"/></g></g></g></g></svg><svg xmlns:rdf="http://www.w3.org/1999/02/22-rdf-syntax-ns#" xmlns:cc="http://creativecommons.org/ns#" xmlns:dc="http://purl.org/dc/elements/1.1/" id="logo" height="300" width="300" version="1.1" y="3670"><g id="logo-layer1" transform="translate(83.108 -170.31)"><text id="logo-text2987" style="word-spacing:0px;letter-spacing:0px" xml:space="preserve" font-size="72px" line-height="125%" y="108.79075" x="130" font-family="Oxygen" fill="#000000"><tspan id="logo-tspan2989" x="130" y="108.79075"/></text><text id="logo-text2997" style="word-spacing:0px;letter-spacing:0px" xml:space="preserve" font-size="72px" line-height="125%" y="254.50504" x="168.57143" font-family="Oxygen" fill="#000000"><tspan id="logo-tspan2999" x="168.57143" y="254.50504"/></text><g id="logo-g3047"><g id="logo-g3904" fill="#514ab8" transform="matrix(.44641 0 0 .49997 -60.212 184.85)"><g id="logo-g2995" fill="#514ab8" transform="translate(-1.9108 23.152)"><path id="logo-path3865" d="m438.02 134.73v37.187h85.862v150.66c-46.451 1.3218-92.935-0.62949-139.4-0.12713-9.564-15.638-19.128-31.275-28.692-46.913 31.157-10.191 41.709-42.636 48.446-68.783 6.9227-23.232-0.80794-49.169 13.989-70.519-12.449-3.1727-29.858 0.92423-44.307-0.29224h-164.44v186.83c-50.595-0.006-101.21 1.3362-151.79 0.1907v-149.38h117.26v-36.806h-167.17v224.59c79.173 0.0615 158.72-0.20816 237.37 0.31784h24.989v-81.939h25.275l48.342 81.939c27.095 0.0155 54.303 0.0877 80.565-0.31784h143.49v-226.62h-129.79zm-167.88 49.265c21.366 0.93649 43.508-2.5084 64.149 3.3432 20.87 8.6332 15.403 42.655-8.9241 43.428-18.315 1.8013-36.82 0.63492-55.225 0.96883v-47.74z" fill="#514ab8"/></g></g></g></g></svg><svg xmlns:rdf="http://www.w3.org/1999/02/22-rdf-syntax-ns#" xmlns:cc="http://creativecommons.org/ns#" xmlns:dc="http://purl.org/dc/elements/1.1/" id="personal-alt" height="250" width="250" version="1.1" viewBox="0 0 250 249.99707" fill="#000000" y="3970"><path id="personal-alt-path3146" fill="#efeff2" d="m234.38 70.312-54.69-54.687 15.62-15.625 54.69 54.687zm-15.626 15.623-7.8125 85.937c-70.312 0-171.87 78.125-171.87 78.125l-12.971-12.971 66.812-66.812c2.6792 1.0664 5.5991 1.6587 8.6587 1.6587 12.944 0 23.437-10.493 23.437-23.437s-10.493-23.437-23.437-23.437-23.437 10.493-23.437 23.437c0 3.0596 0.59228 5.979 1.6587 8.6586l-66.821 66.81-12.971-12.98s78.125-101.56 78.125-171.87l85.937-7.8125 54.687 54.687z"/></svg><svg xmlns:rdf="http://www.w3.org/1999/02/22-rdf-syntax-ns#" xmlns:cc="http://creativecommons.org/ns#" xmlns:dc="http://purl.org/dc/elements/1.1/" id="personal" height="250" width="250" version="1.1" viewBox="0 0 250 249.99707" fill="#000000" y="4220"><path id="personal-path3146" fill="#514ab8" d="m234.38 70.312-54.69-54.687 15.62-15.625 54.69 54.687zm-15.626 15.623-7.8125 85.937c-70.312 0-171.87 78.125-171.87 78.125l-12.971-12.971 66.812-66.812c2.6792 1.0664 5.5991 1.6587 8.6587 1.6587 12.944 0 23.437-10.493 23.437-23.437s-10.493-23.437-23.437-23.437-23.437 10.493-23.437 23.437c0 3.0596 0.59228 5.979 1.6587 8.6586l-66.821 66.81-12.971-12.98s78.125-101.56 78.125-171.87l85.937-7.8125 54.687 54.687z"/></svg><svg xmlns:rdf="http://www.w3.org/1999/02/22-rdf-syntax-ns#" xmlns:cc="http://creativecommons.org/ns#" xmlns:dc="http://purl.org/dc/elements/1.1/" id="project-alt" height="250" width="250" version="1.1" viewBox="0 0 250 250" fill="#000000" y="4470"><path id="project-alt-path67" fill="#efeff9" d="m233.95 0h-200.61v33.333h-24.385c-4.5904 0-8.955 3.263-8.955 7.846v16.667c0 4.5833 4.3646 8.8208 8.9479 8.8208h24.385v16.667h-24.385c-4.5833-0.001-8.9479 3.262-8.9479 7.845v16.667c0 4.5833 4.3646 8.8208 8.9479 8.8208h24.385v16.667h-24.385c-4.5833-0.01-8.9479 3.26-8.9479 7.84v16.667c0 4.5828 4.3646 8.8208 8.9479 8.8208h24.385v16.667h-24.385c-4.5833-0.01-8.9479 3.26-8.9479 7.84v16.667c0 4.5833 4.3646 8.8208 8.9479 8.8208h24.385v33.333h200.61c9.2 0 16.05-7.95 16.05-17.15v-216.67c0-9.2055-6.85-16.18-16.05-16.18zm-150.61 233.33h-33.333v-16.667h8.9479c4.5833 0 7.7188-4.2375 7.7188-8.8208v-16.667c0-4.5839-3.1359-7.8458-7.7188-7.8458h-8.9479v-16.667h8.9479c4.5833 0 7.7188-4.2375 7.7188-8.8208v-16.667c0-4.5839-3.1359-7.8458-7.7188-7.8458h-8.9479v-16.667h8.9479c4.5833 0 7.7188-4.2375 7.7188-8.8208v-16.667c0-4.5839-3.1359-7.8458-7.7188-7.8458h-8.9479v-16.667h8.9479c4.5833 0 7.7188-4.2375 7.7188-8.8208v-16.667c0-4.5838-3.1354-7.8458-7.7188-7.8458h-8.9479v-16.667h33.333v216.67z"/></svg><svg xmlns:rdf="http://www.w3.org/1999/02/22-rdf-syntax-ns#" xmlns:cc="http://creativecommons.org/ns#" xmlns:dc="http://purl.org/dc/elements/1.1/" id="project" height="250" width="250" version="1.1" viewBox="0 0 250 250" fill="#000000" y="4720"><path id="project-path67" fill="#514ab8" d="m233.95 0h-200.61v33.333h-24.385c-4.5904 0-8.955 3.263-8.955 7.846v16.667c0 4.5833 4.3646 8.8208 8.9479 8.8208h24.385v16.667h-24.385c-4.5833-0.001-8.9479 3.262-8.9479 7.845v16.667c0 4.5833 4.3646 8.8208 8.9479 8.8208h24.385v16.667h-24.385c-4.5833-0.01-8.9479 3.26-8.9479 7.84v16.667c0 4.5828 4.3646 8.8208 8.9479 8.8208h24.385v16.667h-24.385c-4.5833-0.01-8.9479 3.26-8.9479 7.84v16.667c0 4.5833 4.3646 8.8208 8.9479 8.8208h24.385v33.333h200.61c9.2 0 16.05-7.95 16.05-17.15v-216.67c0-9.2055-6.85-16.18-16.05-16.18zm-150.61 233.33h-33.333v-16.667h8.9479c4.5833 0 7.7188-4.2375 7.7188-8.8208v-16.667c0-4.5839-3.1359-7.8458-7.7188-7.8458h-8.9479v-16.667h8.9479c4.5833 0 7.7188-4.2375 7.7188-8.8208v-16.667c0-4.5839-3.1359-7.8458-7.7188-7.8458h-8.9479v-16.667h8.9479c4.5833 0 7.7188-4.2375 7.7188-8.8208v-16.667c0-4.5839-3.1359-7.8458-7.7188-7.8458h-8.9479v-16.667h8.9479c4.5833 0 7.7188-4.2375 7.7188-8.8208v-16.667c0-4.5838-3.1354-7.8458-7.7188-7.8458h-8.9479v-16.667h33.333v216.67z"/></svg><svg xmlns:rdf="http://www.w3.org/1999/02/22-rdf-syntax-ns#" xmlns:cc="http://creativecommons.org/ns#" xmlns:dc="http://purl.org/dc/elements/1.1/" id="system-alt" height="250" width="250" version="1.1" viewBox="0 0 250 250" fill="#000000" y="4970"><path id="system-alt-path67" fill="#efeff2" d="m0 15.625v218.75h250v-218.75h-250zm234.38 203.12h-218.75v-187.5h218.75v187.5zm-15.63-171.86h-187.5v156.25h187.5v-156.25zm-109.37 78.125h-15.625v15.625h-15.625v15.625h-15.625v-15.625h15.625v-15.625h15.625v-15.625h-15.625v-15.625h-15.625v-15.625h15.625v15.625h15.625v15.625h15.625v15.625zm62.5 31.25h-46.875v-15.625h46.875v15.625z"/></svg><svg xmlns:rdf="http://www.w3.org/1999/02/22-rdf-syntax-ns#" xmlns:cc="http://creativecommons.org/ns#" xmlns:dc="http://purl.org/dc/elements/1.1/" id="system" height="250" width="250" version="1.1" viewBox="0 0 250 250" fill="#000000" y="5220"><path id="system-path67" fill="#514ab8" d="m0 15.625v218.75h250v-218.75h-250zm234.38 203.12h-218.75v-187.5h218.75v187.5zm-15.63-171.86h-187.5v156.25h187.5v-156.25zm-109.37 78.125h-15.625v15.625h-15.625v15.625h-15.625v-15.625h15.625v-15.625h15.625v-15.625h-15.625v-15.625h-15.625v-15.625h15.625v15.625h15.625v15.625h15.625v15.625zm62.5 31.25h-46.875v-15.625h46.875v15.625z"/></svg><svg xmlns:rdf="http://www.w3.org/1999/02/22-rdf-syntax-ns#" xmlns:cc="http://creativecommons.org/ns#" xmlns:dc="http://purl.org/dc/elements/1.1/" id="tag-alt" height="250" width="250" version="1.1" viewBox="0 0 250 250" fill="#000000" y="5470"><path id="tag-alt-path67" fill="#efeff2" d="m226.32 0.24366h-70.312c-12.891 0-30.896 7.4576-40.011 16.573l-108.92 108.91c-9.115 9.115-9.115 24.031 0 33.146l84.042 84.041c9.115 9.1155 24.031 9.1155 33.146 0l108.92-108.92c9.115-9.1155 16.573-27.12 16.573-40.011v-70.312c0-12.891-10.547-23.438-23.438-23.438zm-31.14 77.972c-12.919 0-23.392-10.473-23.392-23.392s10.473-23.392 23.392-23.392 23.392 10.473 23.392 23.392-10.473 23.392-23.392 23.392z"/></svg><svg xmlns:rdf="http://www.w3.org/1999/02/22-rdf-syntax-ns#" xmlns:cc="http://creativecommons.org/ns#" xmlns:dc="http://purl.org/dc/elements/1.1/" id="tag" height="250" width="250" version="1.1" viewBox="0 0 250 250" fill="#000000" y="5720"><path id="tag-path67" fill="#514ab7" d="m226.32 0.24366h-70.312c-12.891 0-30.896 7.4576-40.011 16.573l-108.92 108.91c-9.115 9.115-9.115 24.031 0 33.146l84.042 84.041c9.115 9.1155 24.031 9.1155 33.146 0l108.92-108.92c9.115-9.1155 16.573-27.12 16.573-40.011v-70.312c0-12.891-10.547-23.438-23.438-23.438zm-31.14 77.972c-12.919 0-23.392-10.473-23.392-23.392s10.473-23.392 23.392-23.392 23.392 10.473 23.392 23.392-10.473 23.392-23.392 23.392z"/></svg><svg xmlns:rdf="http://www.w3.org/1999/02/22-rdf-syntax-ns#" xmlns:cc="http://creativecommons.org/ns#" xmlns:dc="http://purl.org/dc/elements/1.1/" id="tooling-alt" height="250" width="250" version="1.1" viewBox="0 0 250 250" fill="#000000" y="5970"><path id="tooling-alt-path67" fill="#efeff9" d="m244.86 199.68-112.44-96.38c5.23-9.838 8.2-21.065 8.2-32.987 0-38.833-31.47-70.313-70.308-70.313-7.103 0-13.958 1.0576-20.421 3.0161l40.623 40.623c6.0767 6.0767 6.0767 16.021 0 22.097l-24.778 24.778c-6.0767 6.0767-16.021 6.0767-22.097 0l-40.623-40.623c-1.9584 6.464-3.016 13.319-3.016 20.422 0 38.833 31.48 70.313 70.312 70.313 11.922 0 23.149-2.9712 32.987-8.208l96.377 112.44c5.5928 6.5244 15.141 6.8911 21.217 0.81495l24.778-24.778c6.0762-6.0762 5.7095-15.624-0.81495-21.216z"/></svg><svg xmlns:rdf="http://www.w3.org/1999/02/22-rdf-syntax-ns#" xmlns:cc="http://creativecommons.org/ns#" xmlns:dc="http://purl.org/dc/elements/1.1/" id="tooling" height="250" width="250" version="1.1" viewBox="0 0 250 250" fill="#000000" y="6220"><path id="tooling-path67" fill="#514ab8" d="m244.86 199.68-112.44-96.38c5.23-9.838 8.2-21.065 8.2-32.987 0-38.833-31.47-70.313-70.308-70.313-7.103 0-13.958 1.0576-20.421 3.0161l40.623 40.623c6.0767 6.0767 6.0767 16.021 0 22.097l-24.778 24.778c-6.0767 6.0767-16.021 6.0767-22.097 0l-40.623-40.623c-1.9584 6.464-3.016 13.319-3.016 20.422 0 38.833 31.48 70.313 70.312 70.313 11.922 0 23.149-2.9712 32.987-8.208l96.377 112.44c5.5928 6.5244 15.141 6.8911 21.217 0.81495l24.778-24.778c6.0762-6.0762 5.7095-15.624-0.81495-21.216z"/></svg><svg xmlns:rdf="http://www.w3.org/1999/02/22-rdf-syntax-ns#" xmlns:cc="http://creativecommons.org/ns#" xmlns:dc="http://purl.org/dc/elements/1.1/" id="twitter-alt" height="40" width="40" version="1.1" viewBox="0 0 40 40" y="6470"><path id="twitter-alt-path3019" fill="#efeff9" d="m40 7.6158q-1.6998 2.4872-4.1117 4.2382 0.02559 0.35532 0.02559 1.0659 0 3.2987-0.96504 6.5861t-2.9321 6.3061q-1.967 3.0188-4.6831 5.3425-2.716 2.3238-6.5478 3.7052-3.8317 1.3815-8.1978 1.3829-6.8775 0-12.588-3.6796 0.88829 0.10091 1.9798 0.10091 5.7106 0 10.178-3.502-2.6649-0.05116-4.7712-1.6373t-2.8937-4.0478q0.83712 0.12649 1.5478 0.12649 1.0915 0 2.1575-0.27857-2.8427-0.582-4.7088-2.828-1.8661-2.245-1.8661-5.216v-0.10091q1.7254 0.965 3.7052 1.041-1.6757-1.117-2.6649-2.92-0.9892-1.802-0.9892-3.908 0-2.2328 1.1171-4.1373 3.0713 3.782 7.4744 6.0532t9.4287 2.5256q-0.20324-0.96504-0.20324-1.8775 0-3.4011 2.3991-5.7987 2.3991-2.3977 5.7987-2.3991 3.5532 0 5.9892 2.5881 2.7658-0.53297 5.2032-1.9798-0.93945 2.9193-3.6043 4.5182 2.3607-0.25441 4.72-1.2692z"/></svg><svg xmlns:rdf="http://www.w3.org/1999/02/22-rdf-syntax-ns#" xmlns:cc="http://creativecommons.org/ns#" xmlns:dc="http://purl.org/dc/elements/1.1/" id="twitter" height="40" width="40" version="1.1" viewBox="0 0 40 40" y="6510"><path id="twitter-path3019" fill="#514ab8" d="m40 7.6158q-1.6998 2.4872-4.1117 4.2382 0.02559 0.35532 0.02559 1.0659 0 3.2987-0.96504 6.5861t-2.9321 6.3061q-1.967 3.0188-4.6831 5.3425-2.716 2.3238-6.5478 3.7052-3.8317 1.3815-8.1978 1.3829-6.8775 0-12.588-3.6796 0.88829 0.10091 1.9798 0.10091 5.7106 0 10.178-3.502-2.6649-0.05116-4.7712-1.6373t-2.8937-4.0478q0.83712 0.12649 1.5478 0.12649 1.0915 0 2.1575-0.27857-2.8427-0.582-4.7088-2.828-1.8661-2.245-1.8661-5.216v-0.10091q1.7254 0.965 3.7052 1.041-1.6757-1.117-2.6649-2.92-0.9892-1.802-0.9892-3.908 0-2.2328 1.1171-4.1373 3.0713 3.782 7.4744 6.0532t9.4287 2.5256q-0.20324-0.96504-0.20324-1.8775 0-3.4011 2.3991-5.7987 2.3991-2.3977 5.7987-2.3991 3.5532 0 5.9892 2.5881 2.7658-0.53297 5.2032-1.9798-0.93945 2.9193-3.6043 4.5182 2.3607-0.25441 4.72-1.2692z"/></svg><svg xmlns:rdf="http://www.w3.org/1999/02/22-rdf-syntax-ns#" xmlns:cc="http://creativecommons.org/ns#" xmlns:dc="http://purl.org/dc/elements/1.1/" id="web" height="250" width="250" version="1.1" viewBox="0 0 250 250" fill="#000000" y="6550"><path id="web-path67" fill="#514ab8" d="m31.25 125 62.5-62.5h-31.25l-62.5 62.5 62.5 62.5h31.25zm156.25-62.5h-31.25l62.5 62.5-62.5 62.5h31.25l62.5-62.5zm-54.69-31.25-39.06 187.5h23.438l39.062-187.5z"/></svg><svg xmlns:rdf="http://www.w3.org/1999/02/22-rdf-syntax-ns#" xmlns:cc="http://creativecommons.org/ns#" xmlns:dc="http://purl.org/dc/elements/1.1/" id="year-alt" height="250" width="250" version="1.1" viewBox="0 0 250 250" fill="#000000" y="6800"><path id="year-alt-path67" fill="#efeff2" d="m86.014 93.811h31.189v31.189h-31.189zm46.784 0h31.189v31.189h-31.189zm46.784 0h31.189v31.189h-31.189zm-140.35 93.567h31.189v31.189h-31.189zm46.784 0h31.189v31.189h-31.189zm46.784 0h31.189v31.189h-31.189zm-46.784-46.784h31.189v31.189h-31.189zm46.784 0h31.189v31.189h-31.189zm46.784 0h31.189v31.189h-31.189zm-140.35 0h31.189v31.189h-31.189zm171.54-140.36v15.595h-31.189v-15.595h-109.16v15.595h-31.189v-15.595h-31.189v249.51h233.92v-249.51h-31.189zm15.595 233.92h-202.73v-171.54h202.73v171.54z"/></svg><svg xmlns:rdf="http://www.w3.org/1999/02/22-rdf-syntax-ns#" xmlns:cc="http://creativecommons.org/ns#" xmlns:dc="http://purl.org/dc/elements/1.1/" id="year" height="250" width="250" version="1.1" viewBox="0 0 250 250" fill="#000000" y="7050"><path id="year-path67" fill="#514ab7" d="m86.014 93.811h31.189v31.189h-31.189zm46.784 0h31.189v31.189h-31.189zm46.784 0h31.189v31.189h-31.189zm-140.35 93.567h31.189v31.189h-31.189zm46.784 0h31.189v31.189h-31.189zm46.784 0h31.189v31.189h-31.189zm-46.784-46.784h31.189v31.189h-31.189zm46.784 0h31.189v31.189h-31.189zm46.784 0h31.189v31.189h-31.189zm-140.35 0h31.189v31.189h-31.189zm171.54-140.36v15.595h-31.189v-15.595h-109.16v15.595h-31.189v-15.595h-31.189v249.51h233.92v-249.51h-31.189zm15.595 233.92h-202.73v-171.54h202.73v171.54z"/></svg></svg>
